<svg width="250" height="249" xmlns="http://www.w3.org/2000/svg" xmlns:xlink="http://www.w3.org/1999/xlink" xml:space="preserve" overflow="hidden"><g transform="translate(-677 -93)"><path d="M215.632 187.583C215.632 187.583 188.079 154.596 188.079 154.597 186.73 152.982 185.238 151.787 183.674 150.948 188.921 143.571 188 132.277 181.292 126.07L188.975 112.164C191.564 113.315 194.488 113.849 197.564 113.56 205.889 112.777 212.507 105.924 213.009 97.5769 213.63 87.2584 205.105 78.7639 194.776 79.4367 186.353 79.985 179.497 86.7604 178.855 95.1766 178.395 101.21 181.069 106.642 185.415 110.027L177.887 123.653C175.485 122.379 172.623 121.622 169.301 121.602L117.426 121.173C116.363 121.11 115.341 121.112 114.353 121.161 115.989 117.493 116.06 112.959 113.5 108.028L100.95 80.5588C101.009 79.7391 101.001 78.9148 100.92 78.0973L114.478 72.4969C127.129 67.9952 118.974 49.6905 107.016 55.6977 107.016 55.6977 97.7828 60.7384 91.6533 64.0848 91.6294 64.0978 91.6279 64.0942 91.6491 64.0765 95.7281 60.7098 98.2222 55.4917 97.8409 49.7077 97.2827 41.2448 90.4368 34.3755 81.976 33.7914 71.9714 33.1014 63.6408 41.0124 63.6408 50.8686 63.6408 57.1107 66.9831 62.5706 71.9745 65.5617 71.9843 65.5674 71.9828 65.5716 71.9719 65.571 62.0207 64.9003 51.4875 64.1896 51.4875 64.1896 41.8372 63.8706 36.7275 70.2045 35.9613 77.1065L33.3411 77.1065C32.8882 76.0047 32.065 75.2654 31.1219 75.2654 29.6912 75.2654 28.5312 76.9607 28.5312 79.0518 28.5312 81.1429 29.6912 82.8382 31.1219 82.8382 32.065 82.8382 32.8882 82.0989 33.3411 80.9971L35.9846 80.9971C36.8728 88.1849 42.4353 94.7564 52.4596 93.8393L77.3576 92.8163C80.6993 102.895 85.823 118.347 86.3657 119.983 86.3973 120.078 86.4305 120.174 86.4658 120.267 88.8183 126.487 93.2868 129.495 98.0261 130.114 94.1339 136.113 93.486 144.083 96.0787 150.725 93.6665 151.369 91.3114 152.749 89.224 155.037 89.2245 155.037 60.245 186.82 60.245 186.82 45.3714 204.3 70.508 224.705 84.702 210.079 93.0949 218.109 109.922 217.325 113.495 201.451L124.3 162.651C131.48 161.93 152.88 159.781 152.88 159.781L164.411 201.647C167.804 216.72 183.145 218.187 191.871 211.424 205.738 223.474 229.167 204.966 215.632 187.583Z" stroke="#6CC2D9" stroke-width="0.51875" fill="#00F5C4" transform="matrix(1.00402 0 0 1 677 93)"/><path d="M81.6295 191.741C81.2611 191.741 80.8882 191.643 80.551 191.437 79.5721 190.84 79.2634 189.564 79.86 188.585L98.535 157.979C99.1316 157.001 100.408 156.691 101.387 157.289 102.366 157.886 102.675 159.162 102.078 160.141L83.4031 190.747C83.0119 191.388 82.3293 191.741 81.6295 191.741Z" stroke="#6CC2D9" stroke-width="0.51875" fill="#FFFFFF" transform="matrix(1.00402 0 0 1 677 93)"/><path d="M184.346 200.041C183.653 200.041 182.976 199.694 182.583 199.063L165.464 171.569C164.858 170.597 165.156 169.317 166.129 168.711 167.103 168.105 168.382 168.403 168.987 169.376L186.106 196.869C186.712 197.842 186.414 199.122 185.441 199.728 185.099 199.94 184.721 200.041 184.346 200.041Z" stroke="#6CC2D9" stroke-width="0.51875" fill="#FFFFFF" transform="matrix(1.00402 0 0 1 677 93)"/><path d="M164.113 131.047 132.469 131.047C131.323 131.047 130.394 130.118 130.394 128.972 130.394 127.826 131.323 126.897 132.469 126.897L164.113 126.897C165.259 126.897 166.188 127.826 166.188 128.972 166.188 130.118 165.259 131.047 164.113 131.047Z" stroke="#6CC2D9" stroke-width="0.51875" fill="#FFFFFF" transform="matrix(1.00402 0 0 1 677 93)"/><path d="M64.6788 73.1754 49.1163 73.1754C47.9704 73.1754 47.0413 72.2463 47.0413 71.1004 47.0413 69.9545 47.9704 69.0254 49.1163 69.0254L64.6788 69.0254C65.8247 69.0254 66.7538 69.9545 66.7538 71.1004 66.7538 72.2463 65.8247 73.1754 64.6788 73.1754Z" stroke="#6CC2D9" stroke-width="0.51875" fill="#FFFFFF" transform="matrix(1.00402 0 0 1 677 93)"/></g></svg>